<svg id="visual" viewBox="0 0 900 600" width="900" height="600" xmlns="http://www.w3.org/2000/svg" xmlns:xlink="http://www.w3.org/1999/xlink" version="1.1"><g stroke-width="1" stroke-linejoin="bevel"><path d="M414 309L342.5 292L322.5 431Z" fill="#106730" stroke="#106730"></path><path d="M322.5 431L449 416L414 309Z" fill="#0b4923" stroke="#0b4923"></path><path d="M322.5 431L458 488L449 416Z" fill="#0e5f2d" stroke="#0e5f2d"></path><path d="M221 438L256 474L322.5 431Z" fill="#106730" stroke="#106730"></path><path d="M322.5 431L256 474L313.5 497Z" fill="#072d15" stroke="#072d15"></path><path d="M313.5 497L458 488L322.5 431Z" fill="#093b1c" stroke="#093b1c"></path><path d="M196 310L221 438L322.5 431Z" fill="#083418" stroke="#083418"></path><path d="M554.5 266L471 236L414 309Z" fill="#106730" stroke="#106730"></path><path d="M414 309L471 236L342.5 292Z" fill="#116e34" stroke="#116e34"></path><path d="M554.5 266L414 309L449 416Z" fill="#116e34" stroke="#116e34"></path><path d="M250 222L196 310L342.5 292Z" fill="#0a421f" stroke="#0a421f"></path><path d="M342.5 292L196 310L322.5 431Z" fill="#137637" stroke="#137637"></path><path d="M345.5 171L250 222L342.5 292Z" fill="#072d15" stroke="#072d15"></path><path d="M471 236L345.5 171L342.5 292Z" fill="#0e5f2d" stroke="#0e5f2d"></path><path d="M594.5 418L554.5 266L449 416Z" fill="#106730" stroke="#106730"></path><path d="M471 236L480 123L345.5 171Z" fill="#0c5026" stroke="#0c5026"></path><path d="M467 600L543.5 507L458 488Z" fill="#083418" stroke="#083418"></path><path d="M458 488L543.5 507L449 416Z" fill="#116e34" stroke="#116e34"></path><path d="M96.5 425L151.5 464L221 438Z" fill="#083418" stroke="#083418"></path><path d="M221 438L151.5 464L256 474Z" fill="#0e5f2d" stroke="#0e5f2d"></path><path d="M261 600L365.5 600L313.5 497Z" fill="#0b4923" stroke="#0b4923"></path><path d="M261 600L313.5 497L256 474Z" fill="#137637" stroke="#137637"></path><path d="M313.5 497L365.5 600L458 488Z" fill="#0a421f" stroke="#0a421f"></path><path d="M554.5 266L527.5 199L471 236Z" fill="#083418" stroke="#083418"></path><path d="M543.5 507L594.5 418L449 416Z" fill="#0d5729" stroke="#0d5729"></path><path d="M136.5 199L128.5 284L196 310Z" fill="#0d5729" stroke="#0d5729"></path><path d="M196 310L96.5 425L221 438Z" fill="#0a421f" stroke="#0a421f"></path><path d="M136.5 199L196 310L250 222Z" fill="#093b1c" stroke="#093b1c"></path><path d="M142.5 600L261 600L256 474Z" fill="#093b1c" stroke="#093b1c"></path><path d="M365.5 600L467 600L458 488Z" fill="#116e34" stroke="#116e34"></path><path d="M527.5 199L480 123L471 236Z" fill="#137637" stroke="#137637"></path><path d="M128.5 284L96.5 425L196 310Z" fill="#0a421f" stroke="#0a421f"></path><path d="M151.5 464L142.5 600L256 474Z" fill="#083418" stroke="#083418"></path><path d="M263 88L136.5 199L250 222Z" fill="#0b4923" stroke="#0b4923"></path><path d="M0 289L0 436L96.5 425Z" fill="#0e5f2d" stroke="#0e5f2d"></path><path d="M263 88L250 222L345.5 171Z" fill="#0a421f" stroke="#0a421f"></path><path d="M310.5 63L263 88L345.5 171Z" fill="#106730" stroke="#106730"></path><path d="M467 600L555.5 600L543.5 507Z" fill="#0c5026" stroke="#0c5026"></path><path d="M641 505L670 398L594.5 418Z" fill="#083418" stroke="#083418"></path><path d="M480 123L310.5 63L345.5 171Z" fill="#0d5729" stroke="#0d5729"></path><path d="M641 505L594.5 418L543.5 507Z" fill="#0c5026" stroke="#0c5026"></path><path d="M594.5 418L670 398L554.5 266Z" fill="#116e34" stroke="#116e34"></path><path d="M554.5 266L675 216L527.5 199Z" fill="#116e34" stroke="#116e34"></path><path d="M527.5 199L601.5 82L480 123Z" fill="#093b1c" stroke="#093b1c"></path><path d="M555.5 600L641 505L543.5 507Z" fill="#0e5f2d" stroke="#0e5f2d"></path><path d="M0 475L142.5 600L151.5 464Z" fill="#0e5f2d" stroke="#0e5f2d"></path><path d="M670 398L672 261L554.5 266Z" fill="#083418" stroke="#083418"></path><path d="M803.5 199L675 216L672 261Z" fill="#116e34" stroke="#116e34"></path><path d="M672 261L675 216L554.5 266Z" fill="#083418" stroke="#083418"></path><path d="M675 216L644 133L527.5 199Z" fill="#0c5026" stroke="#0c5026"></path><path d="M431 0L362.5 0L310.5 63Z" fill="#116e34" stroke="#116e34"></path><path d="M431 0L310.5 63L480 123Z" fill="#106730" stroke="#106730"></path><path d="M310.5 63L226 0L263 88Z" fill="#106730" stroke="#106730"></path><path d="M0 191L128.5 284L136.5 199Z" fill="#072d15" stroke="#072d15"></path><path d="M0 289L96.5 425L128.5 284Z" fill="#0d5729" stroke="#0d5729"></path><path d="M96.5 425L0 475L151.5 464Z" fill="#0c5026" stroke="#0c5026"></path><path d="M84.5 88L136.5 199L263 88Z" fill="#137637" stroke="#137637"></path><path d="M0 191L0 289L128.5 284Z" fill="#137637" stroke="#137637"></path><path d="M644 133L601.5 82L527.5 199Z" fill="#116e34" stroke="#116e34"></path><path d="M596.5 0L431 0L480 123Z" fill="#137637" stroke="#137637"></path><path d="M0 436L0 475L96.5 425Z" fill="#083418" stroke="#083418"></path><path d="M362.5 0L226 0L310.5 63Z" fill="#0a421f" stroke="#0a421f"></path><path d="M137.5 0L84.5 88L263 88Z" fill="#0b4923" stroke="#0b4923"></path><path d="M84.5 88L0 191L136.5 199Z" fill="#137637" stroke="#137637"></path><path d="M791.5 527L807.5 437L670 398Z" fill="#106730" stroke="#106730"></path><path d="M670 398L773.5 331L672 261Z" fill="#0e5f2d" stroke="#0e5f2d"></path><path d="M555.5 600L695 600L641 505Z" fill="#106730" stroke="#106730"></path><path d="M757.5 0L659 0L644 133Z" fill="#0d5729" stroke="#0d5729"></path><path d="M807.5 437L773.5 331L670 398Z" fill="#083418" stroke="#083418"></path><path d="M226 0L137.5 0L263 88Z" fill="#0d5729" stroke="#0d5729"></path><path d="M84.5 88L0 130L0 191Z" fill="#0e5f2d" stroke="#0e5f2d"></path><path d="M0 475L0 600L142.5 600Z" fill="#083418" stroke="#083418"></path><path d="M0 0L0 130L84.5 88Z" fill="#0e5f2d" stroke="#0e5f2d"></path><path d="M659 0L596.5 0L601.5 82Z" fill="#0b4923" stroke="#0b4923"></path><path d="M601.5 82L596.5 0L480 123Z" fill="#093b1c" stroke="#093b1c"></path><path d="M659 0L601.5 82L644 133Z" fill="#0c5026" stroke="#0c5026"></path><path d="M791.5 527L670 398L641 505Z" fill="#072d15" stroke="#072d15"></path><path d="M695 600L791.5 527L641 505Z" fill="#137637" stroke="#137637"></path><path d="M800.5 109L644 133L675 216Z" fill="#072d15" stroke="#072d15"></path><path d="M900 310L803.5 199L773.5 331Z" fill="#0b4923" stroke="#0b4923"></path><path d="M773.5 331L803.5 199L672 261Z" fill="#083418" stroke="#083418"></path><path d="M803.5 199L800.5 109L675 216Z" fill="#137637" stroke="#137637"></path><path d="M137.5 0L0 0L84.5 88Z" fill="#137637" stroke="#137637"></path><path d="M900 525L900 424L807.5 437Z" fill="#083418" stroke="#083418"></path><path d="M807.5 437L900 310L773.5 331Z" fill="#0a421f" stroke="#0a421f"></path><path d="M803.5 199L900 99L800.5 109Z" fill="#0d5729" stroke="#0d5729"></path><path d="M695 600L824.5 600L791.5 527Z" fill="#083418" stroke="#083418"></path><path d="M800.5 109L757.5 0L644 133Z" fill="#0d5729" stroke="#0d5729"></path><path d="M900 424L900 310L807.5 437Z" fill="#137637" stroke="#137637"></path><path d="M800.5 109L900 0L757.5 0Z" fill="#0b4923" stroke="#0b4923"></path><path d="M900 525L807.5 437L791.5 527Z" fill="#106730" stroke="#106730"></path><path d="M900 310L900 223L803.5 199Z" fill="#0a421f" stroke="#0a421f"></path><path d="M824.5 600L900 525L791.5 527Z" fill="#137637" stroke="#137637"></path><path d="M824.5 600L900 600L900 525Z" fill="#116e34" stroke="#116e34"></path><path d="M900 223L900 99L803.5 199Z" fill="#093b1c" stroke="#093b1c"></path><path d="M900 99L900 0L800.5 109Z" fill="#083418" stroke="#083418"></path></g></svg>