<svg id="visual" viewBox="0 0 1080 1080" width="1080" height="1080" xmlns="http://www.w3.org/2000/svg" xmlns:xlink="http://www.w3.org/1999/xlink" version="1.1"><g stroke-width="1" stroke-linejoin="bevel"><path d="M605 597L619 705L745 684Z" fill="#21063a" stroke="#21063a"></path><path d="M745 684L747 582L605 597Z" fill="#4e1a7c" stroke="#4e1a7c"></path><path d="M747 582L730 498L605 597Z" fill="#3b1261" stroke="#3b1261"></path><path d="M730 498L638 471L605 597Z" fill="#290a47" stroke="#290a47"></path><path d="M750 830L854 690L745 684Z" fill="#581e8a" stroke="#581e8a"></path><path d="M745 684L854 690L747 582Z" fill="#762bb5" stroke="#762bb5"></path><path d="M747 582L874 583L730 498Z" fill="#3b1261" stroke="#3b1261"></path><path d="M619 705L750 830L745 684Z" fill="#6c26a7" stroke="#6c26a7"></path><path d="M513 812L601 839L619 705Z" fill="#581e8a" stroke="#581e8a"></path><path d="M619 705L601 839L750 830Z" fill="#3b1261" stroke="#3b1261"></path><path d="M854 690L874 583L747 582Z" fill="#290a47" stroke="#290a47"></path><path d="M447 720L513 812L619 705Z" fill="#44166e" stroke="#44166e"></path><path d="M447 720L619 705L605 597Z" fill="#44166e" stroke="#44166e"></path><path d="M457 515L452 569L605 597Z" fill="#44166e" stroke="#44166e"></path><path d="M452 569L447 720L605 597Z" fill="#21063a" stroke="#21063a"></path><path d="M638 471L457 515L605 597Z" fill="#3b1261" stroke="#3b1261"></path><path d="M854 690L923 612L874 583Z" fill="#4e1a7c" stroke="#4e1a7c"></path><path d="M931 725L923 612L854 690Z" fill="#290a47" stroke="#290a47"></path><path d="M829 963L846 836L750 830Z" fill="#762bb5" stroke="#762bb5"></path><path d="M750 830L846 836L854 690Z" fill="#812fc4" stroke="#812fc4"></path><path d="M874 583L858 447L730 498Z" fill="#44166e" stroke="#44166e"></path><path d="M750 348L588 351L638 471Z" fill="#21063a" stroke="#21063a"></path><path d="M937 454L858 447L874 583Z" fill="#812fc4" stroke="#812fc4"></path><path d="M846 836L931 725L854 690Z" fill="#290a47" stroke="#290a47"></path><path d="M750 348L638 471L730 498Z" fill="#6c26a7" stroke="#6c26a7"></path><path d="M638 471L588 351L457 515Z" fill="#581e8a" stroke="#581e8a"></path><path d="M844 384L750 348L730 498Z" fill="#762bb5" stroke="#762bb5"></path><path d="M937 454L844 384L858 447Z" fill="#4e1a7c" stroke="#4e1a7c"></path><path d="M858 447L844 384L730 498Z" fill="#812fc4" stroke="#812fc4"></path><path d="M354 458L365 574L457 515Z" fill="#320e53" stroke="#320e53"></path><path d="M457 515L365 574L452 569Z" fill="#21063a" stroke="#21063a"></path><path d="M452 569L365 574L447 720Z" fill="#812fc4" stroke="#812fc4"></path><path d="M923 612L937 454L874 583Z" fill="#581e8a" stroke="#581e8a"></path><path d="M1080 567L937 454L923 612Z" fill="#290a47" stroke="#290a47"></path><path d="M578 967L741 970L601 839Z" fill="#21063a" stroke="#21063a"></path><path d="M601 839L741 970L750 830Z" fill="#762bb5" stroke="#762bb5"></path><path d="M462 953L578 967L513 812Z" fill="#581e8a" stroke="#581e8a"></path><path d="M513 812L578 967L601 839Z" fill="#3b1261" stroke="#3b1261"></path><path d="M462 953L513 812L329 855Z" fill="#812fc4" stroke="#812fc4"></path><path d="M365 574L335 696L447 720Z" fill="#762bb5" stroke="#762bb5"></path><path d="M588 351L452 373L457 515Z" fill="#6c26a7" stroke="#6c26a7"></path><path d="M741 970L829 963L750 830Z" fill="#4e1a7c" stroke="#4e1a7c"></path><path d="M846 836L985 854L931 725Z" fill="#44166e" stroke="#44166e"></path><path d="M452 373L354 458L457 515Z" fill="#581e8a" stroke="#581e8a"></path><path d="M365 574L277 623L335 696Z" fill="#6c26a7" stroke="#6c26a7"></path><path d="M329 855L513 812L447 720Z" fill="#6c26a7" stroke="#6c26a7"></path><path d="M921 982L985 854L846 836Z" fill="#4e1a7c" stroke="#4e1a7c"></path><path d="M931 725L1080 715L923 612Z" fill="#3b1261" stroke="#3b1261"></path><path d="M879 241L750 348L844 384Z" fill="#581e8a" stroke="#581e8a"></path><path d="M879 241L721 255L750 348Z" fill="#622298" stroke="#622298"></path><path d="M750 348L721 255L588 351Z" fill="#812fc4" stroke="#812fc4"></path><path d="M588 351L576 236L452 373Z" fill="#21063a" stroke="#21063a"></path><path d="M208 500L277 623L365 574Z" fill="#320e53" stroke="#320e53"></path><path d="M335 696L329 855L447 720Z" fill="#6c26a7" stroke="#6c26a7"></path><path d="M260 734L329 855L335 696Z" fill="#44166e" stroke="#44166e"></path><path d="M985 854L1080 715L931 725Z" fill="#21063a" stroke="#21063a"></path><path d="M1080 715L1080 567L923 612Z" fill="#3b1261" stroke="#3b1261"></path><path d="M937 454L990 360L844 384Z" fill="#581e8a" stroke="#581e8a"></path><path d="M721 255L576 236L588 351Z" fill="#21063a" stroke="#21063a"></path><path d="M452 373L370 326L354 458Z" fill="#581e8a" stroke="#581e8a"></path><path d="M829 963L921 982L846 836Z" fill="#581e8a" stroke="#581e8a"></path><path d="M985 854L1080 877L1080 715Z" fill="#3b1261" stroke="#3b1261"></path><path d="M836 1080L921 982L829 963Z" fill="#762bb5" stroke="#762bb5"></path><path d="M836 1080L829 963L741 970Z" fill="#44166e" stroke="#44166e"></path><path d="M277 623L260 734L335 696Z" fill="#762bb5" stroke="#762bb5"></path><path d="M1080 508L990 360L937 454Z" fill="#44166e" stroke="#44166e"></path><path d="M1080 567L1080 508L937 454Z" fill="#622298" stroke="#622298"></path><path d="M455 223L370 326L452 373Z" fill="#762bb5" stroke="#762bb5"></path><path d="M354 458L208 500L365 574Z" fill="#290a47" stroke="#290a47"></path><path d="M459 1080L572 1080L578 967Z" fill="#812fc4" stroke="#812fc4"></path><path d="M578 967L737 1080L741 970Z" fill="#622298" stroke="#622298"></path><path d="M329 855L396 985L462 953Z" fill="#812fc4" stroke="#812fc4"></path><path d="M221 957L396 985L329 855Z" fill="#581e8a" stroke="#581e8a"></path><path d="M572 1080L737 1080L578 967Z" fill="#622298" stroke="#622298"></path><path d="M459 1080L578 967L462 953Z" fill="#21063a" stroke="#21063a"></path><path d="M990 360L879 241L844 384Z" fill="#622298" stroke="#622298"></path><path d="M721 255L638 112L576 236Z" fill="#6c26a7" stroke="#6c26a7"></path><path d="M737 1080L836 1080L741 970Z" fill="#3b1261" stroke="#3b1261"></path><path d="M1080 999L1080 877L985 854Z" fill="#812fc4" stroke="#812fc4"></path><path d="M1080 999L985 854L921 982Z" fill="#812fc4" stroke="#812fc4"></path><path d="M576 236L455 223L452 373Z" fill="#762bb5" stroke="#762bb5"></path><path d="M490 144L455 223L576 236Z" fill="#812fc4" stroke="#812fc4"></path><path d="M396 985L459 1080L462 953Z" fill="#290a47" stroke="#290a47"></path><path d="M253 394L208 500L354 458Z" fill="#6c26a7" stroke="#6c26a7"></path><path d="M277 623L142 721L260 734Z" fill="#6c26a7" stroke="#6c26a7"></path><path d="M253 394L354 458L370 326Z" fill="#6c26a7" stroke="#6c26a7"></path><path d="M204 273L253 394L370 326Z" fill="#762bb5" stroke="#762bb5"></path><path d="M990 360L993 273L879 241Z" fill="#762bb5" stroke="#762bb5"></path><path d="M1080 356L993 273L990 360Z" fill="#290a47" stroke="#290a47"></path><path d="M142 721L218 828L260 734Z" fill="#44166e" stroke="#44166e"></path><path d="M260 734L218 828L329 855Z" fill="#581e8a" stroke="#581e8a"></path><path d="M396 985L322 1080L459 1080Z" fill="#762bb5" stroke="#762bb5"></path><path d="M455 223L385 243L370 326Z" fill="#622298" stroke="#622298"></path><path d="M1080 508L1080 356L990 360Z" fill="#21063a" stroke="#21063a"></path><path d="M836 1080L937 1080L921 982Z" fill="#320e53" stroke="#320e53"></path><path d="M979 110L830 157L879 241Z" fill="#290a47" stroke="#290a47"></path><path d="M879 241L830 157L721 255Z" fill="#4e1a7c" stroke="#4e1a7c"></path><path d="M638 112L490 144L576 236Z" fill="#3b1261" stroke="#3b1261"></path><path d="M455 223L335 122L385 243Z" fill="#812fc4" stroke="#812fc4"></path><path d="M736 100L638 112L721 255Z" fill="#4e1a7c" stroke="#4e1a7c"></path><path d="M117 609L142 721L277 623Z" fill="#44166e" stroke="#44166e"></path><path d="M937 1080L1080 999L921 982Z" fill="#290a47" stroke="#290a47"></path><path d="M830 157L736 100L721 255Z" fill="#762bb5" stroke="#762bb5"></path><path d="M157 856L221 957L218 828Z" fill="#622298" stroke="#622298"></path><path d="M218 828L221 957L329 855Z" fill="#6c26a7" stroke="#6c26a7"></path><path d="M134 450L117 609L208 500Z" fill="#622298" stroke="#622298"></path><path d="M208 500L117 609L277 623Z" fill="#812fc4" stroke="#812fc4"></path><path d="M92 949L157 856L0 800Z" fill="#21063a" stroke="#21063a"></path><path d="M142 721L157 856L218 828Z" fill="#21063a" stroke="#21063a"></path><path d="M221 957L322 1080L396 985Z" fill="#812fc4" stroke="#812fc4"></path><path d="M253 394L134 450L208 500Z" fill="#812fc4" stroke="#812fc4"></path><path d="M128 340L134 450L253 394Z" fill="#762bb5" stroke="#762bb5"></path><path d="M204 273L370 326L385 243Z" fill="#320e53" stroke="#320e53"></path><path d="M993 273L979 110L879 241Z" fill="#6c26a7" stroke="#6c26a7"></path><path d="M857 0L713 0L736 100Z" fill="#6c26a7" stroke="#6c26a7"></path><path d="M1080 356L1080 220L993 273Z" fill="#290a47" stroke="#290a47"></path><path d="M937 1080L1080 1080L1080 999Z" fill="#762bb5" stroke="#762bb5"></path><path d="M335 122L204 273L385 243Z" fill="#622298" stroke="#622298"></path><path d="M99 1080L262 1080L221 957Z" fill="#4e1a7c" stroke="#4e1a7c"></path><path d="M221 957L262 1080L322 1080Z" fill="#21063a" stroke="#21063a"></path><path d="M1080 220L979 110L993 273Z" fill="#44166e" stroke="#44166e"></path><path d="M393 0L335 122L490 144Z" fill="#320e53" stroke="#320e53"></path><path d="M490 144L335 122L455 223Z" fill="#21063a" stroke="#21063a"></path><path d="M581 0L490 144L638 112Z" fill="#21063a" stroke="#21063a"></path><path d="M204 273L128 340L253 394Z" fill="#21063a" stroke="#21063a"></path><path d="M0 485L0 603L117 609Z" fill="#622298" stroke="#622298"></path><path d="M98 269L128 340L204 273Z" fill="#6c26a7" stroke="#6c26a7"></path><path d="M857 0L736 100L830 157Z" fill="#3b1261" stroke="#3b1261"></path><path d="M736 100L713 0L638 112Z" fill="#3b1261" stroke="#3b1261"></path><path d="M1080 220L1080 137L979 110Z" fill="#622298" stroke="#622298"></path><path d="M979 110L857 0L830 157Z" fill="#812fc4" stroke="#812fc4"></path><path d="M713 0L581 0L638 112Z" fill="#812fc4" stroke="#812fc4"></path><path d="M0 800L157 856L142 721Z" fill="#320e53" stroke="#320e53"></path><path d="M157 856L92 949L221 957Z" fill="#762bb5" stroke="#762bb5"></path><path d="M0 727L142 721L117 609Z" fill="#622298" stroke="#622298"></path><path d="M991 0L857 0L979 110Z" fill="#581e8a" stroke="#581e8a"></path><path d="M581 0L482 0L490 144Z" fill="#4e1a7c" stroke="#4e1a7c"></path><path d="M0 485L117 609L134 450Z" fill="#812fc4" stroke="#812fc4"></path><path d="M0 603L0 727L117 609Z" fill="#812fc4" stroke="#812fc4"></path><path d="M0 353L0 485L134 450Z" fill="#812fc4" stroke="#812fc4"></path><path d="M89 147L98 269L204 273Z" fill="#762bb5" stroke="#762bb5"></path><path d="M208 102L204 273L335 122Z" fill="#44166e" stroke="#44166e"></path><path d="M0 727L0 800L142 721Z" fill="#320e53" stroke="#320e53"></path><path d="M0 353L134 450L128 340Z" fill="#21063a" stroke="#21063a"></path><path d="M482 0L393 0L490 144Z" fill="#622298" stroke="#622298"></path><path d="M205 0L208 102L335 122Z" fill="#44166e" stroke="#44166e"></path><path d="M1080 0L991 0L979 110Z" fill="#622298" stroke="#622298"></path><path d="M92 949L99 1080L221 957Z" fill="#320e53" stroke="#320e53"></path><path d="M0 966L99 1080L92 949Z" fill="#3b1261" stroke="#3b1261"></path><path d="M0 266L0 353L98 269Z" fill="#622298" stroke="#622298"></path><path d="M98 269L0 353L128 340Z" fill="#44166e" stroke="#44166e"></path><path d="M0 800L0 966L92 949Z" fill="#21063a" stroke="#21063a"></path><path d="M1080 137L1080 0L979 110Z" fill="#320e53" stroke="#320e53"></path><path d="M149 0L89 147L208 102Z" fill="#6c26a7" stroke="#6c26a7"></path><path d="M208 102L89 147L204 273Z" fill="#762bb5" stroke="#762bb5"></path><path d="M89 147L0 266L98 269Z" fill="#320e53" stroke="#320e53"></path><path d="M393 0L205 0L335 122Z" fill="#812fc4" stroke="#812fc4"></path><path d="M0 966L0 1080L99 1080Z" fill="#290a47" stroke="#290a47"></path><path d="M205 0L149 0L208 102Z" fill="#320e53" stroke="#320e53"></path><path d="M89 147L0 126L0 266Z" fill="#21063a" stroke="#21063a"></path><path d="M0 0L0 126L89 147Z" fill="#762bb5" stroke="#762bb5"></path><path d="M149 0L0 0L89 147Z" fill="#3b1261" stroke="#3b1261"></path></g></svg>