<?xml version="1.0" standalone="no"?>
<!DOCTYPE svg PUBLIC "-//W3C//DTD SVG 20010904//EN"
 "http://www.w3.org/TR/2001/REC-SVG-20010904/DTD/svg10.dtd">
<svg version="1.0" xmlns="http://www.w3.org/2000/svg"
 width="512.000000pt" height="512.000000pt" viewBox="0 0 512.000000 512.000000"
 preserveAspectRatio="xMidYMid meet">
<metadata>
Created by potrace 1.14, written by Peter Selinger 2001-2017
</metadata>
<g transform="translate(0.000000,512.000000) scale(0.100000,-0.100000)"
fill="#000000" stroke="none">
<path d="M885 3935 c-64 -15 -101 -35 -144 -77 -73 -71 -101 -145 -97 -253 5
-153 125 -277 287 -294 244 -26 420 227 316 452 -63 136 -213 207 -362 172z"/>
<path d="M2171 3938 c-77 -13 -155 -69 -205 -148 -43 -67 -56 -170 -32 -255
10 -31 21 -62 26 -69 75 -96 142 -140 231 -153 90 -13 2007 -8 2056 6 144 40
243 186 229 336 -3 36 -10 73 -15 83 -5 9 -14 29 -21 44 -21 45 -86 105 -147
134 l-58 29 -1010 0 c-555 1 -1030 -2 -1054 -7z"/>
<path d="M849 2859 c-69 -24 -144 -93 -179 -164 -35 -70 -35 -197 0 -269 95
-196 354 -246 506 -98 74 72 99 129 99 232 0 99 -23 156 -90 225 -84 85 -222
115 -336 74z"/>
<path d="M2140 2863 c-84 -30 -152 -90 -191 -171 -34 -70 -33 -198 1 -266 32
-64 93 -126 155 -156 l50 -25 1045 0 1045 0 50 25 c244 122 243 460 -1 581
l-49 24 -1030 2 c-915 1 -1035 0 -1075 -14z"/>
<path d="M2210 1808 c-82 -8 -123 -26 -182 -77 -70 -62 -101 -134 -102 -235
-1 -68 3 -90 25 -136 33 -69 87 -122 158 -157 l56 -28 1015 -1 c1093 -1 1069
-2 1153 52 164 106 194 337 62 482 -37 42 -118 88 -171 98 -41 9 -1935 10
-2014 2z"/>
<path d="M859 1797 c-88 -33 -156 -95 -192 -176 -32 -71 -30 -200 5 -266 118
-226 428 -242 558 -28 40 65 53 122 46 195 -10 111 -76 207 -178 259 -54 28
-184 36 -239 16z"/>
</g>
</svg>
