<?xml version="1.0" standalone="no"?>
<!DOCTYPE svg PUBLIC "-//W3C//DTD SVG 20010904//EN"
 "http://www.w3.org/TR/2001/REC-SVG-20010904/DTD/svg10.dtd">
<svg version="1.0" xmlns="http://www.w3.org/2000/svg"
 width="700.000000pt" height="700.000000pt" viewBox="0 0 700.000000 700.000000"
 preserveAspectRatio="xMidYMid meet">
<metadata>
Created by potrace 1.14, written by Peter Selinger 2001-2017
</metadata>
<g transform="translate(0.000000,700.000000) scale(0.100000,-0.100000)"
fill="#000000" stroke="none">
<path d="M3378 6984 c-142 -34 -287 -148 -344 -271 l-29 -63 -170 0 c-93 0
-190 -5 -214 -11 -73 -16 -149 -58 -210 -114 l-57 -54 -475 -3 -474 -3 -85
-29 c-155 -52 -264 -120 -374 -232 -121 -124 -208 -299 -236 -474 -6 -43 -10
-885 -10 -2500 0 -2353 1 -2438 19 -2527 73 -354 354 -627 708 -688 78 -13
335 -15 2113 -13 l2025 3 79 23 c320 90 559 337 633 652 17 71 18 218 18 2570
l0 2495 -28 90 c-93 296 -296 504 -587 601 l-85 29 -475 3 -474 3 -51 48
c-115 108 -189 131 -430 131 l-170 0 -29 63 c-38 80 -139 183 -224 226 -116
58 -245 74 -364 45z m220 -367 c53 -35 75 -84 70 -156 -5 -71 -32 -111 -94
-141 -83 -41 -190 -5 -229 75 -23 51 -17 140 13 182 52 74 162 92 240 40z
m-569 -375 c18 -40 47 -79 100 -133 112 -111 222 -159 371 -159 149 0 259 48
371 159 53 54 82 93 100 133 l24 58 157 0 c154 0 157 0 187 -26 l31 -26 0
-298 0 -298 -31 -26 -31 -26 -808 0 -808 0 -31 26 -31 26 0 298 0 298 31 26
c30 26 33 26 187 26 l157 0 24 -58z m-757 -379 c5 -230 7 -264 26 -315 52
-143 164 -245 309 -283 86 -22 1700 -22 1786 0 145 38 251 134 307 280 21 56
23 79 28 318 l4 257 387 0 c419 0 441 -3 550 -57 84 -42 181 -143 224 -233 19
-41 40 -102 46 -134 8 -42 11 -792 11 -2466 0 -2381 0 -2408 -20 -2486 -47
-184 -190 -327 -374 -374 -78 -20 -106 -20 -2055 -20 -1714 0 -1984 2 -2039
15 -198 47 -343 187 -392 380 -20 77 -20 110 -20 2489 0 2650 -4 2484 62 2609
41 78 145 183 220 220 106 53 123 55 544 56 l392 1 4 -257z"/>
<path d="M2723 4531 c-37 -17 -58 -43 -184 -233 -78 -117 -143 -215 -146 -217
-2 -3 -61 23 -131 57 -139 68 -170 74 -238 43 -98 -45 -128 -171 -62 -264 14
-19 84 -60 229 -132 187 -94 214 -105 262 -105 39 0 63 6 88 23 44 29 412 574
428 633 20 77 -21 162 -93 195 -52 24 -100 24 -153 0z"/>
<path d="M3424 4181 c-129 -59 -129 -253 0 -312 39 -18 81 -19 776 -19 695 0
737 1 776 19 129 59 129 253 0 312 -39 18 -81 19 -776 19 -695 0 -737 -1 -776
-19z"/>
<path d="M2761 3320 c-18 -4 -45 -17 -60 -27 -14 -10 -90 -114 -169 -231
l-142 -212 -123 62 c-98 49 -131 61 -168 61 -98 -1 -171 -75 -171 -173 0 -51
18 -94 54 -127 12 -12 115 -67 226 -122 221 -110 244 -116 319 -81 38 17 60
46 243 320 125 188 201 311 202 328 4 80 -13 124 -62 165 -26 22 -92 49 -110
46 -3 -1 -20 -5 -39 -9z"/>
<path d="M3461 2970 c-18 -4 -45 -17 -59 -27 -135 -101 -79 -298 91 -318 29
-3 367 -5 752 -3 629 3 703 5 730 20 64 35 97 90 97 158 0 68 -33 123 -97 158
-27 15 -101 17 -755 19 -399 1 -740 -2 -759 -7z"/>
<path d="M2723 2081 c-37 -17 -58 -43 -184 -233 -78 -117 -143 -215 -146 -217
-2 -3 -61 23 -131 57 -139 68 -170 74 -238 43 -98 -45 -128 -171 -62 -264 14
-19 84 -60 229 -132 187 -94 214 -105 262 -105 39 0 63 6 88 23 44 29 412 574
428 633 20 77 -21 162 -93 195 -52 24 -100 24 -153 0z"/>
<path d="M3424 1731 c-129 -59 -129 -253 0 -312 39 -18 81 -19 776 -19 695 0
737 1 776 19 129 59 129 253 0 312 -39 18 -81 19 -776 19 -695 0 -737 -1 -776
-19z"/>
</g>
</svg>
